<?xml version="1.0" standalone="no"?><!DOCTYPE svg PUBLIC "-//W3C//DTD SVG 1.1//EN" "http://www.w3.org/Graphics/SVG/1.1/DTD/svg11.dtd"><svg t="1593423760919" class="icon" viewBox="0 0 1024 1024" version="1.1" xmlns="http://www.w3.org/2000/svg" p-id="28468" xmlns:xlink="http://www.w3.org/1999/xlink" width="128" height="128"><defs><style type="text/css"></style></defs><path d="M512 512m-512 0a512 512 0 1 0 1024 0 512 512 0 1 0-1024 0Z" fill="#273B7A" p-id="28469"></path><path d="M633.746 1009.396c200.576-48.928 354.834-215.982 384.896-423.292L714.048 281.51l-33.216 39.146-162.288-163.298-8.844 48.932v21.776l106.648 106.644-58.068 182.93-195.912-195.908-6.672-2.242-5.52 14.43L552.4 536.144l-47.284 148.952L299.102 479.08l-18.538 3.752-51.844 6.736 257.686 254.482-3.172 9.996-120.866-120.866-14.418 15.87 0.158 0.158-38.154 36.388 323.792 323.8z" fill="#121149" p-id="28470"></path><path d="M682.666 455.112c0-96.532-80.144-174.346-177.524-170.532-87.25 3.416-158.714 73.642-163.54 160.826-3.316 59.882 24.266 113.498 68.252 146.404 28.076 21.004 45.256 53.468 45.256 88.532v59.212c0 31.42 25.468 56.888 56.888 56.888 31.42 0 56.888-25.468 56.888-56.888v-58.264c0-35.54 17.356-68.456 45.738-89.844 41.326-31.136 68.042-80.608 68.042-136.334z" fill="#FFC61B" p-id="28471"></path><path d="M512 284.49v511.956c31.42 0 56.888-25.468 56.888-56.888v-58.264c0-35.54 17.356-68.456 45.738-89.844 41.322-31.138 68.04-80.61 68.04-136.336 0-94.256-76.414-170.622-170.666-170.624z" fill="#EAA22F" p-id="28472"></path><path d="M455.112 682.666v56.888c0 31.42 25.468 56.888 56.888 56.888 31.42 0 56.888-25.468 56.888-56.888v-56.892l-113.776 0.004z" fill="#D0D1D3" p-id="28473"></path><path d="M512 682.664v113.782c31.42 0 56.888-25.468 56.888-56.888v-56.892H512z" fill="#A6A8AA" p-id="28474"></path><path d="M512 228.418a8.62 8.62 0 0 1-8.62-8.62V162.91c0-4.762 3.858-8.62 8.62-8.62s8.62 3.858 8.62 8.62v56.888a8.62 8.62 0 0 1-8.62 8.62z" fill="#FEE187" p-id="28475"></path><path d="M512 154.29v74.128a8.62 8.62 0 0 0 8.62-8.62V162.91a8.62 8.62 0 0 0-8.62-8.62zM789.118 492.176h-56.888c-4.762 0-8.62-3.858-8.62-8.62s3.858-8.62 8.62-8.62h56.888c4.762 0 8.62 3.858 8.62 8.62s-3.858 8.62-8.62 8.62z" fill="#FFC61B" p-id="28476"></path><path d="M291.772 492.176h-56.888c-4.762 0-8.62-3.858-8.62-8.62s3.858-8.62 8.62-8.62h56.888a8.62 8.62 0 1 1 0 17.24z" fill="#FEE187" p-id="28477"></path><path d="M707.952 688.128a8.604 8.604 0 0 1-6.096-2.524l-40.226-40.23a8.614 8.614 0 0 1 0-12.188 8.614 8.614 0 0 1 12.188 0l40.226 40.23a8.614 8.614 0 0 1-6.092 14.712z" fill="#FFC61B" p-id="28478"></path><path d="M356.276 336.452a8.604 8.604 0 0 1-6.096-2.524l-40.226-40.226c-3.368-3.368-3.368-8.822 0-12.188s8.822-3.368 12.188 0l40.226 40.226a8.614 8.614 0 0 1-6.092 14.712z" fill="#FEE187" p-id="28479"></path><path d="M667.724 336.452a8.614 8.614 0 0 1-6.096-14.712l40.23-40.23a8.614 8.614 0 0 1 12.188 0 8.616 8.616 0 0 1 0 12.188l-40.23 40.23a8.588 8.588 0 0 1-6.092 2.524z" fill="#FFC61B" p-id="28480"></path><path d="M316.048 688.128a8.614 8.614 0 0 1-6.096-14.712l40.23-40.226c3.368-3.368 8.822-3.368 12.188 0s3.368 8.826 0 12.188l-40.23 40.226a8.592 8.592 0 0 1-6.092 2.524z" fill="#FEE187" p-id="28481"></path><path d="M479.232 560.27a15.404 15.404 0 0 1-9.14-2.99 15.514 15.514 0 0 1-3.372-21.68l47.48-64.974h-34.954a15.514 15.514 0 1 1-12.526-24.67l65.508-89.644a15.504 15.504 0 0 1 21.68-3.372 15.514 15.514 0 0 1 3.372 21.68l-47.48 64.974h34.954a15.514 15.514 0 1 1 12.526 24.67l-65.508 89.644a15.49 15.49 0 0 1-12.54 6.362z" fill="#FF5419" p-id="28482"></path><path d="M557.28 374.622a15.51 15.51 0 0 0-3.372-21.68 15.5 15.5 0 0 0-21.68 3.372L512 383.994v52.592l45.28-61.964zM544.754 439.596H512v31.03h2.196L512 473.632v52.592l45.28-61.96a15.52 15.52 0 0 0 1.31-16.178 15.526 15.526 0 0 0-13.836-8.49z" fill="#C92F00" p-id="28483"></path></svg>